<svg width="663" height="662" viewBox="0 0 663 662" fill="none" xmlns="http://www.w3.org/2000/svg">
<path fill-rule="evenodd" clip-rule="evenodd" d="M662 331C662 513.806 513.806 662 331 662C148.194 662 0 513.806 0 331C0 148.194 148.194 0 331 0C372.95 0 413.078 7.80397 450.01 22.0393L662.26 22.53V176.41L623.721 176.341C648.16 222.5 662 275.134 662 331ZM506 331C506 427.65 427.65 506 331 506C234.35 506 156 427.65 156 331C156 234.35 234.35 156 331 156C427.65 156 506 234.35 506 331Z" fill="#0069A9" fill-opacity="0.5"/>
</svg>
