<?xml version="1.0" standalone="no"?>
<!DOCTYPE svg PUBLIC "-//W3C//DTD SVG 20010904//EN"
 "http://www.w3.org/TR/2001/REC-SVG-20010904/DTD/svg10.dtd">
<svg version="1.0" xmlns="http://www.w3.org/2000/svg"
 width="1193.000000pt" height="417.000000pt" viewBox="0 0 1193.000000 417.000000"
 preserveAspectRatio="xMidYMid meet">

<g transform="translate(0.000000,417.000000) scale(0.100000,-0.100000)"
fill="#000000" stroke="none">
<path d="M10409 3788 c-29 -73 -54 -135 -56 -137 -2 -3 -67 16 -146 42 -264
86 -424 124 -702 166 -199 30 -303 36 -649 36 l-320 0 -43 -105 c-52 -124 -38
-91 -130 -320 -41 -102 -118 -291 -170 -420 -52 -129 -97 -241 -100 -248 -4
-10 40 -12 213 -10 l218 3 128 315 c70 173 140 348 155 389 l28 73 215 -5
c118 -3 224 -8 235 -10 11 -3 52 -8 90 -11 155 -15 346 -50 540 -97 109 -27
298 -84 316 -95 4 -2 -8 -44 -27 -92 -19 -48 -34 -88 -34 -89 0 -2 290 -3 645
-3 l645 0 11 28 c12 29 18 43 97 247 28 72 78 200 112 285 34 85 64 163 67
173 5 16 -30 17 -640 17 l-645 0 -53 -132z m821 35 c0 -5 -51 -135 -112 -290
l-113 -283 -168 0 -167 0 16 38 c8 20 58 143 111 272 52 129 99 243 104 253 9
15 27 17 169 17 88 0 160 -3 160 -7z"/>
<path d="M7474 3555 c-83 -18 -180 -67 -232 -118 -64 -62 -68 -73 -34 -91 46
-24 89 -75 102 -121 33 -117 -77 -230 -235 -243 l-65 -5 0 -51 c0 -28 3 -68 6
-88 l7 -38 456 0 c251 0 461 4 467 8 22 14 102 148 129 217 55 139 19 274
-104 395 -76 74 -152 110 -284 135 -94 18 -132 18 -213 0z"/>
<path d="M6905 2731 c-90 -22 -154 -105 -155 -201 0 -56 24 -98 83 -142 24
-18 52 -43 61 -56 17 -22 17 -24 -1 -55 -13 -22 -28 -33 -47 -35 -27 -3 -28
-2 -24 40 l3 43 -84 3 c-96 3 -101 0 -101 -69 0 -101 79 -153 217 -145 99 6
155 33 193 92 35 55 45 99 35 152 -5 29 -22 52 -83 109 l-76 72 17 35 c14 30
22 36 48 36 30 0 30 -1 27 -42 l-3 -43 87 -3 87 -3 7 36 c22 120 -51 186 -201
184 -33 -1 -73 -4 -90 -8z"/>
<path d="M7660 2731 c-67 -21 -123 -67 -153 -126 -34 -67 -128 -311 -133 -346
-4 -20 -1 -54 6 -74 19 -57 67 -75 205 -75 189 0 171 -11 235 153 30 77 57
144 58 149 2 4 -46 8 -108 8 l-111 0 -15 -36 c-9 -22 -12 -48 -8 -70 5 -26 2
-40 -11 -54 -20 -23 -63 -27 -71 -7 -5 13 110 311 129 335 6 7 22 12 36 10 27
-3 32 -25 16 -75 -7 -23 -6 -23 69 -23 43 0 86 5 96 10 24 13 43 82 34 123
-10 48 -31 74 -75 91 -41 17 -154 20 -199 7z"/>
<path d="M8852 2729 c-75 -18 -95 -50 -213 -343 l-108 -266 87 0 88 0 26 68
26 67 46 3 46 3 -21 -53 c-37 -96 -42 -88 52 -88 l84 0 29 73 c16 39 37 90 46
112 51 118 110 275 116 303 9 43 -10 84 -49 107 -38 23 -185 30 -255 14z m108
-157 c0 -10 -10 -45 -23 -77 -22 -57 -25 -60 -61 -63 -35 -3 -37 -2 -31 20 12
39 35 92 51 116 18 27 64 31 64 4z"/>
<path d="M5680 2723 c-200 -5 -682 -24 -830 -33 -85 -5 -227 -12 -315 -15 -88
-3 -180 -8 -205 -10 -44 -5 -70 -7 -240 -20 -167 -13 -507 -46 -630 -61 -69
-8 -161 -19 -205 -24 -417 -46 -1240 -203 -1529 -291 -254 -78 -488 -243 -672
-474 -210 -263 -301 -663 -218 -953 53 -184 179 -358 344 -473 126 -88 306
-139 491 -139 330 0 616 127 880 389 162 162 256 312 314 504 78 258 71 494
-22 697 -28 62 -99 172 -137 212 -32 33 -33 44 -3 51 37 9 505 84 597 96 259
33 329 41 475 55 267 26 366 35 465 41 111 6 221 14 305 21 155 12 712 25
1333 31 617 5 684 7 689 22 3 9 37 97 75 195 37 99 68 181 68 183 0 3 -870 1
-1030 -4z m-3578 -834 c240 -50 412 -283 394 -534 -12 -176 -74 -319 -193
-445 -168 -179 -339 -260 -547 -260 -191 0 -337 69 -433 205 -99 141 -122 322
-63 511 74 241 294 449 543 514 82 22 219 26 299 9z"/>
<path d="M7319 2703 c-5 -14 -25 -63 -44 -107 -19 -45 -70 -170 -114 -279
l-80 -198 86 3 86 3 72 180 c40 99 93 231 119 294 25 62 46 117 46 122 0 5
-36 9 -80 9 -78 0 -81 -1 -91 -27z"/>
<path d="M8060 2708 c-44 -105 -230 -573 -230 -580 0 -5 37 -8 82 -6 l83 3 59
148 c32 81 62 147 66 147 4 0 17 -43 30 -95 13 -53 27 -98 33 -102 5 -3 54 39
108 93 54 54 101 95 105 91 3 -3 -18 -68 -49 -144 l-55 -138 80 -3 c44 -2 82
-1 85 1 4 5 243 596 243 603 0 2 -35 4 -78 4 -92 0 -87 3 -230 -135 -59 -57
-110 -101 -113 -100 -3 2 -14 32 -24 67 -10 35 -25 86 -34 113 l-17 50 -67 3
c-62 3 -68 1 -77 -20z"/>
<path d="M9875 2309 c-318 -24 -643 -207 -874 -494 -152 -188 -242 -409 -260
-640 -24 -287 50 -506 232 -694 172 -178 356 -251 633 -251 311 0 556 99 827
334 146 126 291 341 352 521 28 81 55 212 61 297 l7 88 -512 0 c-281 0 -511
-3 -511 -7 0 -5 -16 -95 -35 -202 -19 -107 -35 -196 -35 -197 0 -2 133 -5 296
-6 l295 -3 -43 -64 c-111 -166 -300 -299 -479 -337 -94 -20 -261 -14 -334 13
-130 47 -226 135 -288 263 -40 82 -42 89 -45 198 -5 138 12 221 69 335 95 192
269 342 473 409 79 25 235 35 318 19 84 -17 179 -65 243 -123 l52 -47 164 139
c90 77 164 143 164 148 0 17 -55 73 -122 123 -176 134 -402 196 -648 178z"/>
<path d="M4860 2080 c-138 -18 -237 -64 -311 -143 -53 -57 -89 -142 -523
-1227 l-62 -155 219 -3 c121 -1 222 -1 224 2 2 2 35 80 73 172 l68 169 96 3
c59 2 96 -1 96 -7 0 -6 -7 -25 -15 -43 -15 -36 -79 -200 -101 -260 l-13 -38
219 0 218 0 35 88 c19 48 83 206 142 352 309 762 289 708 293 795 3 72 1 85
-25 135 -35 68 -92 112 -181 141 -54 17 -97 22 -227 24 -88 2 -189 0 -225 -5z
m149 -376 c31 -22 27 -43 -49 -236 l-62 -158 -84 0 c-53 0 -84 4 -84 11 0 25
126 315 149 342 23 27 71 56 96 57 6 0 21 -7 34 -16z"/>
<path d="M6095 2080 c-202 -41 -360 -175 -457 -389 -32 -69 -201 -487 -250
-616 -58 -153 -71 -254 -46 -353 16 -64 92 -139 168 -167 50 -18 80 -20 310
-20 225 0 261 2 310 19 126 44 205 126 286 296 31 63 59 122 64 131 5 9 12 32
15 52 11 57 -7 61 -245 65 l-205 3 -39 -95 c-45 -112 -76 -146 -136 -146 -101
0 -100 13 54 390 24 58 72 177 107 265 35 88 73 170 86 183 44 44 143 22 143
-32 0 -10 -13 -51 -30 -93 -16 -41 -30 -76 -30 -79 0 -2 96 -4 213 -4 195 0
215 2 245 20 53 33 66 76 67 220 0 112 -2 130 -23 170 -50 96 -145 160 -269
180 -69 12 -281 11 -338 0z"/>
<path d="M3357 2063 c-3 -4 -133 -330 -290 -723 -157 -393 -293 -732 -302
-753 l-15 -37 225 2 226 3 102 255 102 255 64 0 c58 0 66 -3 84 -28 l21 -27
-77 -193 c-43 -105 -77 -202 -77 -214 0 -47 29 -53 245 -53 l200 0 63 158 c86
215 95 249 91 341 -4 67 -8 83 -32 115 -16 20 -40 41 -53 46 -25 10 -33 30
-11 30 23 0 161 88 208 132 147 139 222 351 173 490 -29 80 -102 150 -190 179
-65 22 -87 23 -410 27 -188 2 -344 0 -347 -5z m438 -363 c44 -37 -10 -166 -87
-206 -26 -14 -109 -20 -120 -8 -3 3 10 42 29 87 19 45 41 97 49 116 14 33 15
33 64 29 27 -3 56 -11 65 -18z"/>
<path d="M7022 1968 c-23 -57 -69 -170 -102 -253 -105 -257 -443 -1091 -467
-1153 -4 -10 40 -12 213 -10 l218 3 22 55 c20 52 141 351 269 665 70 172 259
638 291 719 13 33 24 63 24 68 0 4 -96 8 -214 8 l-213 0 -41 -102z"/>
<path d="M7563 1868 c-45 -111 -110 -270 -143 -353 -34 -82 -103 -253 -155
-380 -51 -126 -123 -304 -160 -395 -37 -91 -69 -171 -72 -177 -4 -10 42 -13
211 -13 l216 0 15 33 c8 17 60 145 115 282 178 440 173 430 182 409 4 -11 30
-156 58 -323 32 -194 57 -315 68 -335 34 -59 66 -67 262 -64 l174 3 93 230
c51 127 127 313 167 415 41 102 115 284 164 405 49 121 110 271 136 334 25 62
46 117 46 122 0 5 -96 9 -214 9 l-215 0 -40 -102 c-22 -57 -74 -186 -116 -288
-42 -102 -90 -221 -107 -265 -17 -44 -32 -82 -34 -84 -9 -10 -15 13 -34 130
-12 68 -35 207 -51 309 -49 297 -46 294 -302 298 l-182 4 -82 -204z"/>
<path d="M1035 1978 c-333 -198 -544 -456 -621 -758 -39 -156 -10 -390 69
-548 62 -124 40 -112 213 -112 l152 0 -53 104 c-89 176 -119 300 -118 496 1
221 58 412 177 589 50 74 172 205 231 248 47 35 26 27 -50 -19z"/>
</g>
</svg>
